<?xml version="1.0" encoding="UTF-8" standalone="no"?>
<!-- Created with Inkscape (http://www.inkscape.org/) -->

<svg
   xmlns:dc="http://purl.org/dc/elements/1.1/"
   xmlns:cc="http://creativecommons.org/ns#"
   xmlns:rdf="http://www.w3.org/1999/02/22-rdf-syntax-ns#"
   xmlns:svg="http://www.w3.org/2000/svg"
   xmlns="http://www.w3.org/2000/svg"
   xmlns:xlink="http://www.w3.org/1999/xlink"
   xmlns:sodipodi="http://sodipodi.sourceforge.net/DTD/sodipodi-0.dtd"
   xmlns:inkscape="http://www.inkscape.org/namespaces/inkscape"
   width="800"
   height="480"
   id="svg2"
   version="1.1"
   inkscape:version="0.48.2 r9819"
   sodipodi:docname="drawing.svg">
  <defs
     id="defs4">
    <pattern
       inkscape:collect="always"
       xlink:href="#Strips1_1"
       id="pattern5271"
       patternTransform="matrix(5.171355,5.171355,-12.20563,12.20563,286.86292,359.81384)" />
    <pattern
       inkscape:stockid="Stripes 1:1"
       id="Strips1_1"
       patternTransform="translate(0,0) scale(10,10)"
       height="1"
       width="2"
       patternUnits="userSpaceOnUse"
       inkscape:collect="always">
      <rect
         id="rect4540"
         height="2"
         width="1"
         y="-0.5"
         x="0"
         style="fill:black;stroke:none" />
    </pattern>
  </defs>
  <sodipodi:namedview
     id="base"
     pagecolor="#ffffff"
     bordercolor="#666666"
     borderopacity="1.0"
     inkscape:pageopacity="0.0"
     inkscape:pageshadow="2"
     inkscape:zoom="0.5"
     inkscape:cx="389.69503"
     inkscape:cy="325.76546"
     inkscape:document-units="px"
     inkscape:current-layer="layer6"
     showgrid="false"
     inkscape:window-width="1600"
     inkscape:window-height="844"
     inkscape:window-x="-4"
     inkscape:window-y="-4"
     inkscape:window-maximized="1">
    <inkscape:grid
       type="xygrid"
       id="grid3046"
       empspacing="5"
       visible="true"
       enabled="true"
       snapvisiblegridlinesonly="true" />
  </sodipodi:namedview>
  <metadata
     id="metadata7">
    <rdf:RDF>
      <cc:Work
         rdf:about="">
        <dc:format>image/svg+xml</dc:format>
        <dc:type
           rdf:resource="http://purl.org/dc/dcmitype/StillImage" />
        <dc:title></dc:title>
      </cc:Work>
    </rdf:RDF>
  </metadata>
  <g
     inkscape:label="bg"
     inkscape:groupmode="layer"
     id="layer1"
     transform="translate(0,-572.36218)"
     sodipodi:insensitive="true">
    <rect
       style="opacity:0.96860986;fill:#ffffff;fill-opacity:1;stroke:none"
       id="rect5281"
       width="800"
       height="480"
       x="0"
       y="572.36218" />
    <rect
       style="opacity:0.1;fill:url(#pattern5271);fill-opacity:1;stroke:none"
       id="rect3048"
       width="800"
       height="480"
       x="0"
       y="572.36218"
       ry="0" />
  </g>
  <g
     inkscape:groupmode="layer"
     id="layer2"
     inkscape:label="entities"
     style="display:inline">
    <g
       inkscape:groupmode="layer"
       id="layer5"
       inkscape:label="map">
      <rect
         style="fill:#ffffff;fill-opacity:1;stroke:none"
         id="rect5284"
         width="740"
         height="420"
         x="30"
         y="30" />
    </g>
    <g
       inkscape:groupmode="layer"
       id="layer6"
       inkscape:label="particles"
       style="display:inline">
      <path
         sodipodi:type="arc"
         style="fill:#2e3436;fill-opacity:1;stroke:none"
         id="path5438"
         sodipodi:cx="-22.5"
         sodipodi:cy="127.5"
         sodipodi:rx="2.5"
         sodipodi:ry="2.5"
         d="m -20,127.5 a 2.5,2.5 0 1 1 -5,0 2.5,2.5 0 1 1 5,0 z" />
      <path
         style="fill:#fa6363;fill-opacity:1;stroke:none"
         d="m 376.4375,38.65625 c -1.38071,0 -2.5,1.119288 -2.5,2.5 0,1.380712 1.11929,2.5 2.5,2.5 1.38071,0 2.5,-1.119288 2.5,-2.5 0,-1.380712 -1.11929,-2.5 -2.5,-2.5 z m 48.375,8.03125 c -1.38071,0 -2.5,1.119288 -2.5,2.5 0,1.380712 1.11929,2.5 2.5,2.5 1.38071,0 2.5,-1.119288 2.5,-2.5 0,-1.380712 -1.11929,-2.5 -2.5,-2.5 z M 438.375,60.875 c -1.38071,0 -2.5,1.119288 -2.5,2.5 0,1.380712 1.11929,2.5 2.5,2.5 1.38071,0 2.5,-1.119288 2.5,-2.5 0,-1.380712 -1.11929,-2.5 -2.5,-2.5 z m -18.8125,9.4375 c -1.38071,0 -2.5,1.119288 -2.5,2.5 0,1.380712 1.11929,2.5 2.5,2.5 1.38071,0 2.5,-1.119288 2.5,-2.5 0,-1.380712 -1.11929,-2.5 -2.5,-2.5 z m 6.40625,9.40625 c -1.38071,0 -2.5,1.11929 -2.5,2.5 0,1.38071 1.11929,2.5 2.5,2.5 1.38071,0 2.5,-1.11929 2.5,-2.5 0,-1.38071 -1.11929,-2.5 -2.5,-2.5 z m 15.625,0 c -1.38071,0 -2.5,1.11929 -2.5,2.5 0,1.38071 1.11929,2.5 2.5,2.5 1.38071,0 2.5,-1.11929 2.5,-2.5 0,-1.38071 -1.11929,-2.5 -2.5,-2.5 z M 376.75,81.40625 c -0.4438,0 -0.85746,0.10971 -1.21875,0.3125 -0.33995,-0.173 -0.71743,-0.28125 -1.125,-0.28125 -1.38071,0 -2.5,1.11929 -2.5,2.5 0,1.38071 1.11929,2.5 2.5,2.5 0.44608,0 0.85618,-0.13902 1.21875,-0.34375 0.34099,0.17436 0.71572,0.3125 1.125,0.3125 1.38071,0 2.5,-1.11929 2.5,-2.5 0,-1.38071 -1.11929,-2.5 -2.5,-2.5 z m 22.6875,5.875 c -1.38071,0 -2.5,1.11929 -2.5,2.5 0,1.38071 1.11929,2.5 2.5,2.5 1.38071,0 2.5,-1.11929 2.5,-2.5 0,-1.38071 -1.11929,-2.5 -2.5,-2.5 z m 19.53125,2.78125 c -1.38071,0 -2.5,1.11929 -2.5,2.5 0,1.38071 1.11929,2.5 2.5,2.5 1.38071,0 2.5,-1.11929 2.5,-2.5 0,-1.38071 -1.11929,-2.5 -2.5,-2.5 z M 348.375,97.375 c -1.38071,0 -2.5,1.11929 -2.5,2.5 0,1.38071 1.11929,2.5 2.5,2.5 1.38071,0 2.5,-1.11929 2.5,-2.5 0,-1.38071 -1.11929,-2.5 -2.5,-2.5 z m 90.875,1.46875 c -1.38071,0 -2.5,1.11929 -2.5,2.5 0,1.38071 1.11929,2.5 2.5,2.5 1.38071,0 2.5,-1.11929 2.5,-2.5 0,-1.38071 -1.11929,-2.5 -2.5,-2.5 z m -76.40625,0.25 c -1.38071,0 -2.5,1.11929 -2.5,2.5 0,1.38071 1.11929,2.5 2.5,2.5 1.38071,0 2.5,-1.11929 2.5,-2.5 0,-1.38071 -1.11929,-2.5 -2.5,-2.5 z m 35.6875,5.84375 c -1.38071,0 -2.5,1.11929 -2.5,2.5 0,1.38071 1.11929,2.5 2.5,2.5 1.38071,0 2.5,-1.11929 2.5,-2.5 0,-1.38071 -1.11929,-2.5 -2.5,-2.5 z m 16.75,7.71875 c -1.38071,0 -2.5,1.11929 -2.5,2.5 0,1.38071 1.11929,2.5 2.5,2.5 1.38071,0 2.5,-1.11929 2.5,-2.5 0,-1.38071 -1.11929,-2.5 -2.5,-2.5 z M 388.5,117 c -1.38071,0 -2.5,1.11929 -2.5,2.5 0,1.38071 1.11929,2.5 2.5,2.5 0.53387,0 1.03139,-0.18365 1.4375,-0.46875 -0.0258,0.14394 -0.0625,0.28615 -0.0625,0.4375 0,1.38071 1.11929,2.5 2.5,2.5 1.38071,0 2.5,-1.11929 2.5,-2.5 0,-1.38071 -1.11929,-2.5 -2.5,-2.5 -0.54308,0 -1.02751,0.17462 -1.4375,0.46875 0.0258,-0.14393 0.0625,-0.28615 0.0625,-0.4375 0,-1.38071 -1.11929,-2.5 -2.5,-2.5 z m 61.25,9.40625 c -1.38071,0 -2.5,1.11929 -2.5,2.5 0,1.38071 1.11929,2.5 2.5,2.5 1.38071,0 2.5,-1.11929 2.5,-2.5 0,-1.38071 -1.11929,-2.5 -2.5,-2.5 z M 415,130.5625 c -1.38071,0 -2.5,1.11929 -2.5,2.5 0,1.38071 1.11929,2.5 2.5,2.5 1.38071,0 2.5,-1.11929 2.5,-2.5 0,-1.38071 -1.11929,-2.5 -2.5,-2.5 z m 7.15625,5.15625 c -1.38071,0 -2.5,1.11929 -2.5,2.5 0,1.38071 1.11929,2.5 2.5,2.5 1.38071,0 2.5,-1.11929 2.5,-2.5 0,-1.38071 -1.11929,-2.5 -2.5,-2.5 z"
         id="path5775"
         inkscape:connector-curvature="0" />
      <path
         style="fill:#8fd84a;fill-opacity:1;stroke:none"
         d="m 268.4375,99.71875 c -1.38071,0 -2.5,1.11929 -2.5,2.5 0,1.38071 1.11929,2.5 2.5,2.5 1.38071,0 2.5,-1.11929 2.5,-2.5 0,-1.38071 -1.11929,-2.5 -2.5,-2.5 z m -25.78125,1.9375 c -1.38071,0 -2.5,1.11929 -2.5,2.5 0,1.38071 1.11929,2.5 2.5,2.5 1.38071,0 2.5,-1.11929 2.5,-2.5 0,-1.38071 -1.11929,-2.5 -2.5,-2.5 z m -9.21875,8.5625 c -1.38071,0 -2.5,1.11929 -2.5,2.5 0,1.38071 1.11929,2.5 2.5,2.5 1.38071,0 2.5,-1.11929 2.5,-2.5 0,-1.38071 -1.11929,-2.5 -2.5,-2.5 z m -17.5,1.34375 c -1.38071,0 -2.5,1.11929 -2.5,2.5 0,1.38071 1.11929,2.5 2.5,2.5 1.38071,0 2.5,-1.11929 2.5,-2.5 0,-1.38071 -1.11929,-2.5 -2.5,-2.5 z M 246.5,144.59375 c -1.38071,0 -2.5,1.11929 -2.5,2.5 0,1.38071 1.11929,2.5 2.5,2.5 1.38071,0 2.5,-1.11929 2.5,-2.5 0,-1.38071 -1.11929,-2.5 -2.5,-2.5 z m 27.71875,1.75 c -1.38071,0 -2.5,1.11929 -2.5,2.5 0,1.38071 1.11929,2.5 2.5,2.5 1.38071,0 2.5,-1.11929 2.5,-2.5 0,-1.38071 -1.11929,-2.5 -2.5,-2.5 z m -21.03125,2.71875 c -1.38071,0 -2.5,1.11929 -2.5,2.5 0,1.38071 1.11929,2.5 2.5,2.5 1.38071,0 2.5,-1.11929 2.5,-2.5 0,-1.38071 -1.11929,-2.5 -2.5,-2.5 z m -30.65625,1.46875 c -1.38071,0 -2.5,1.11929 -2.5,2.5 0,1.38071 1.11929,2.5 2.5,2.5 1.38071,0 2.5,-1.11929 2.5,-2.5 0,-1.38071 -1.11929,-2.5 -2.5,-2.5 z"
         id="path5858"
         inkscape:connector-curvature="0"
         sodipodi:nodetypes="ssssssssssssssssssssssssssssssssssssssss" />
      <path
         style="fill:#64a0de;fill-opacity:1;stroke:none"
         d="m 217.5625,283.1875 c -1.38071,0 -2.5,1.11929 -2.5,2.5 0,1.38071 1.11929,2.5 2.5,2.5 1.38071,0 2.5,-1.11929 2.5,-2.5 0,-1.38071 -1.11929,-2.5 -2.5,-2.5 z m -80.5,28.5625 c -1.38071,0 -2.5,1.11929 -2.5,2.5 0,1.38071 1.11929,2.5 2.5,2.5 1.38071,0 2.5,-1.11929 2.5,-2.5 0,-1.38071 -1.11929,-2.5 -2.5,-2.5 z m 137.375,17.46875 c -1.38071,0 -2.5,1.11929 -2.5,2.5 0,1.38071 1.11929,2.5 2.5,2.5 1.38071,0 2.5,-1.11929 2.5,-2.5 0,-1.38071 -1.11929,-2.5 -2.5,-2.5 z M 139,365.9375 c -1.38071,0 -2.5,1.11929 -2.5,2.5 0,1.38071 1.11929,2.5 2.5,2.5 1.38071,0 2.5,-1.11929 2.5,-2.5 0,-1.38071 -1.11929,-2.5 -2.5,-2.5 z m 110.75,1.59375 c -1.38071,0 -2.5,1.11929 -2.5,2.5 0,1.38071 1.11929,2.5 2.5,2.5 1.38071,0 2.5,-1.11929 2.5,-2.5 0,-1.38071 -1.11929,-2.5 -2.5,-2.5 z m -34.40625,4.625 c -1.38071,0 -2.5,1.11929 -2.5,2.5 0,1.38071 1.11929,2.5 2.5,2.5 1.38071,0 2.5,-1.11929 2.5,-2.5 0,-1.38071 -1.11929,-2.5 -2.5,-2.5 z M 312,388.71875 c -1.38071,0 -2.5,1.11929 -2.5,2.5 0,1.38071 1.11929,2.5 2.5,2.5 1.38071,0 2.5,-1.11929 2.5,-2.5 0,-1.38071 -1.11929,-2.5 -2.5,-2.5 z m -133.96875,12.4375 c -1.38071,0 -2.5,1.11929 -2.5,2.5 0,1.38071 1.11929,2.5 2.5,2.5 1.38071,0 2.5,-1.11929 2.5,-2.5 0,-1.38071 -1.11929,-2.5 -2.5,-2.5 z m 24.09375,5.75 c -1.38071,0 -2.5,1.11929 -2.5,2.5 0,1.38071 1.11929,2.5 2.5,2.5 1.38071,0 2.5,-1.11929 2.5,-2.5 0,-1.38071 -1.11929,-2.5 -2.5,-2.5 z m -26.03125,2.96875 c -1.38071,0 -2.5,1.11929 -2.5,2.5 0,1.38071 1.11929,2.5 2.5,2.5 1.38071,0 2.5,-1.11929 2.5,-2.5 0,-1.38071 -1.11929,-2.5 -2.5,-2.5 z"
         id="path5886"
         inkscape:connector-curvature="0" />
      <path
         style="fill:#ffda2d;fill-opacity:1;stroke:none"
         d="m 675.21875,364.84375 c -1.38071,0 -2.5,1.11929 -2.5,2.5 0,1.38071 1.11929,2.5 2.5,2.5 1.38071,0 2.5,-1.11929 2.5,-2.5 0,-1.38071 -1.11929,-2.5 -2.5,-2.5 z m 22.125,17.53125 c -1.38071,0 -2.5,1.11929 -2.5,2.5 0,1.38071 1.11929,2.5 2.5,2.5 1.38071,0 2.5,-1.11929 2.5,-2.5 0,-1.38071 -1.11929,-2.5 -2.5,-2.5 z m -51.625,-102.28125 c -1.38071,0 -2.5,1.11929 -2.5,2.5 0,1.38071 1.11929,2.5 2.5,2.5 1.38071,0 2.5,-1.11929 2.5,-2.5 0,-1.38071 -1.11929,-2.5 -2.5,-2.5 z m 6.40625,124.8125 c -1.38071,0 -2.5,1.11929 -2.5,2.5 0,1.38071 1.11929,2.5 2.5,2.5 1.38071,0 2.5,-1.11929 2.5,-2.5 0,-1.38071 -1.11929,-2.5 -2.5,-2.5 z m 44.53125,9.6875 c -1.38071,0 -2.5,1.11929 -2.5,2.5 0,1.38071 1.11929,2.5 2.5,2.5 1.38071,0 2.5,-1.11929 2.5,-2.5 0,-1.38071 -1.11929,-2.5 -2.5,-2.5 z"
         id="path5933"
         inkscape:connector-curvature="0"
         sodipodi:nodetypes="sssssssssssssssssssssssss" />
      <path
         style="opacity:0.25;fill:#2e3436;fill-opacity:1;stroke:none"
         d="m 605.20283,175.7555 c -1.38071,0 -2.5,1.11929 -2.5,2.5 0,1.38071 1.11929,2.5 2.5,2.5 1.38071,0 2.5,-1.11929 2.5,-2.5 0,-1.38071 -1.11929,-2.5 -2.5,-2.5 z m 36.1875,12.6875 c -1.38071,0 -2.5,1.11929 -2.5,2.5 0,1.38071 1.11929,2.5 2.5,2.5 1.38071,0 2.5,-1.11929 2.5,-2.5 0,-1.38071 -1.11929,-2.5 -2.5,-2.5 z m -102.96875,53.5 c -1.38071,0 -2.5,1.11929 -2.5,2.5 0,1.38071 1.11929,2.5 2.5,2.5 1.38071,0 2.5,-1.11929 2.5,-2.5 0,-1.38071 -1.11929,-2.5 -2.5,-2.5 z m 5.4375,10.09375 c -1.38071,0 -2.5,1.11929 -2.5,2.5 0,1.38071 1.11929,2.5 2.5,2.5 1.38071,0 2.5,-1.11929 2.5,-2.5 0,-1.38071 -1.11929,-2.5 -2.5,-2.5 z m 48.8125,3.78125 c -1.38071,0 -2.5,1.11929 -2.5,2.5 0,1.38071 1.11929,2.5 2.5,2.5 1.38071,0 2.5,-1.11929 2.5,-2.5 0,-1.38071 -1.11929,-2.5 -2.5,-2.5 z"
         id="path6001"
         inkscape:connector-curvature="0" />
      <path
         d="m -20,127.5 a 2.5,2.5 0 1 1 -5,0 2.5,2.5 0 1 1 5,0 z"
         sodipodi:ry="2.5"
         sodipodi:rx="2.5"
         sodipodi:cy="127.5"
         sodipodi:cx="-22.5"
         id="path6015"
         style="fill:#2e3436;fill-opacity:1;stroke:none"
         sodipodi:type="arc"
         transform="translate(736.12581,-83.689863)" />
      <path
         style="fill:#2e3436;fill-opacity:1;stroke:none"
         d="m 723.8186,-4.0826564 c -1.38071,0 -2.5,1.119288 -2.5,2.5 0,1.38071195 1.11929,2.49999995 2.5,2.49999995 1.38071,0 2.5,-1.119288 2.5,-2.49999995 0,-1.380712 -1.11929,-2.5 -2.5,-2.5 z m 10.3125,2.96875 c -1.38071,0 -2.5,1.11928795 -2.5,2.5 0,1.380712 1.11929,2.5 2.5,2.5 1.38071,0 2.5,-1.119288 2.5,-2.5 0,-1.38071205 -1.11929,-2.5 -2.5,-2.5 z m -6.46875,4.34375 c -1.38071,0 -2.5,1.119288 -2.5,2.5 0,1.380712 1.11929,2.5 2.5,2.5 1.38071,0 2.5,-1.119288 2.5,-2.5 0,-1.380712 -1.11929,-2.5 -2.5,-2.5 z m 16,4.375 c -1.38071,0 -2.5,1.119288 -2.5,2.5000004 0,1.380712 1.11929,2.5 2.5,2.5 1.38071,0 2.5,-1.119288 2.5,-2.5 0,-1.3807124 -1.11929,-2.5000004 -2.5,-2.5000004 z m -37.3125,13.5937504 c -1.38071,0 -2.5,1.119288 -2.5,2.5 0,1.380712 1.11929,2.5 2.5,2.5 1.38071,0 2.5,-1.119288 2.5,-2.5 0,-1.380712 -1.11929,-2.5 -2.5,-2.5 z m -25.71875,21.40625 c -1.38071,0 -2.5,1.119288 -2.5,2.5 0,1.380712 1.11929,2.5 2.5,2.5 1.38071,0 2.5,-1.119288 2.5,-2.5 0,-1.380712 -1.11929,-2.5 -2.5,-2.5 z m 7.625,6.3125 c -1.38071,0 -2.5,1.119288 -2.5,2.5 0,1.380712 1.11929,2.5 2.5,2.5 1.38071,0 2.5,-1.119288 2.5,-2.5 0,-1.380712 -1.11929,-2.5 -2.5,-2.5 z m -44,7.593746 c -1.38071,0 -2.5,1.11929 -2.5,2.5 0,1.38071 1.11929,2.5 2.5,2.5 1.38071,0 2.5,-1.11929 2.5,-2.5 0,-1.38071 -1.11929,-2.5 -2.5,-2.5 z m -8.03125,7.71875 c -1.38071,0 -2.5,1.11929 -2.5,2.5 0,1.38071 1.11929,2.5 2.5,2.5 1.38071,0 2.5,-1.11929 2.5,-2.5 0,-1.38071 -1.11929,-2.5 -2.5,-2.5 z m 9.96875,11.875 c -1.38071,0 -2.5,1.11929 -2.5,2.5 0,1.38071 1.11929,2.5 2.5,2.5 1.38071,0 2.5,-1.11929 2.5,-2.5 0,-1.38071 -1.11929,-2.5 -2.5,-2.5 z m -16.8125,3.3125 c -1.38071,0 -2.5,1.11929 -2.5,2.5 0,1.38071 1.11929,2.5 2.5,2.5 1.38071,0 2.5,-1.11929 2.5,-2.5 0,-1.38071 -1.11929,-2.5 -2.5,-2.5 z m 13.78125,22.09375 c -1.38071,0 -2.5,1.11929 -2.5,2.5 0,1.38071 1.11929,2.5 2.5,2.5 1.38071,0 2.5,-1.11929 2.5,-2.5 0,-1.38071 -1.11929,-2.5 -2.5,-2.5 z m -15.375,35.28125 c -1.38071,0 -2.5,1.11929 -2.5,2.5 0,1.38071 1.11929,2.5 2.5,2.5 1.38071,0 2.5,-1.11929 2.5,-2.5 0,-1.38071 -1.11929,-2.5 -2.5,-2.5 z"
         id="path6017"
         inkscape:connector-curvature="0" />
    </g>
    <g
       inkscape:groupmode="layer"
       id="layer3"
       inkscape:label="zoomed out"
       style="display:inline">
      <g
         id="g6124">
        <path
           transform="translate(288,312)"
           sodipodi:type="arc"
           style="fill:#ffda2d;fill-opacity:1;stroke:none"
           id="path5301"
           sodipodi:cx="405"
           sodipodi:cy="95"
           sodipodi:rx="15"
           sodipodi:ry="15"
           d="m 420,95 a 15,15 0 1 1 -30,0 15,15 0 1 1 30,0 z" />
        <path
           d="m 420,95 a 15,15 0 1 1 -30,0 15,15 0 1 1 30,0 z"
           sodipodi:ry="15"
           sodipodi:rx="15"
           sodipodi:cy="95"
           sodipodi:cx="405"
           id="path5947"
           style="fill:#ffffff;fill-opacity:1;stroke:none"
           sodipodi:type="arc"
           transform="matrix(0.86666667,0,0,0.86666667,342,324.66667)" />
      </g>
      <g
         id="g6071"
         transform="translate(24,33)">
        <path
           d="m 420,95 a 15,15 0 1 1 -30,0 15,15 0 1 1 30,0 z"
           sodipodi:ry="15"
           sodipodi:rx="15"
           sodipodi:cy="95"
           sodipodi:cx="405"
           id="path5297"
           style="fill:#ff9d3d;fill-opacity:1;stroke:none"
           sodipodi:type="arc"
           transform="translate(92,54)" />
        <path
           transform="matrix(0.96094757,0,0,0.94916246,107.81623,58.829567)"
           sodipodi:type="arc"
           style="fill:#ffffff;fill-opacity:1;stroke:none"
           id="path5949"
           sodipodi:cx="405"
           sodipodi:cy="95"
           sodipodi:rx="15"
           sodipodi:ry="15"
           d="m 420,95 a 15,15 0 1 1 -30,0 15,15 0 1 1 30,0 z" />
      </g>
      <g
         id="g6055"
         transform="translate(33,25)">
        <path
           d="m 420,95 a 15,15 0 1 1 -30,0 15,15 0 1 1 30,0 z"
           sodipodi:ry="15"
           sodipodi:rx="15"
           sodipodi:cy="95"
           sodipodi:cx="405"
           id="path5293"
           style="fill:#fa6363;fill-opacity:1;stroke:none"
           sodipodi:type="arc" />
        <path
           transform="matrix(0.24575276,0,0,0.24575276,305.47013,71.653487)"
           sodipodi:type="arc"
           style="fill:#ffffff;fill-opacity:1;stroke:none"
           id="path5951"
           sodipodi:cx="405"
           sodipodi:cy="95"
           sodipodi:rx="15"
           sodipodi:ry="15"
           d="m 420,95 a 15,15 0 1 1 -30,0 15,15 0 1 1 30,0 z" />
      </g>
      <g
         id="g6059"
         transform="translate(30,-10)">
        <path
           transform="translate(-157,40)"
           sodipodi:type="arc"
           style="fill:#8fd84a;fill-opacity:1;stroke:none"
           id="path5299"
           sodipodi:cx="405"
           sodipodi:cy="95"
           sodipodi:rx="15"
           sodipodi:ry="15"
           d="m 420,95 a 15,15 0 1 1 -30,0 15,15 0 1 1 30,0 z" />
        <path
           d="m 420,95 a 15,15 0 1 1 -30,0 15,15 0 1 1 30,0 z"
           sodipodi:ry="15"
           sodipodi:rx="15"
           sodipodi:cy="95"
           sodipodi:cx="405"
           id="path5953"
           style="fill:#ffffff;fill-opacity:1;stroke:none"
           sodipodi:type="arc"
           transform="matrix(0.49324014,0,0,0.49324014,48.237744,88.142187)" />
      </g>
      <g
         id="g6063"
         transform="translate(43,6)">
        <path
           transform="translate(-174,239)"
           sodipodi:type="arc"
           style="fill:#64a0de;fill-opacity:1;stroke:none"
           id="path5295"
           sodipodi:cx="405"
           sodipodi:cy="95"
           sodipodi:rx="15"
           sodipodi:ry="15"
           d="m 420,95 a 15,15 0 1 1 -30,0 15,15 0 1 1 30,0 z" />
        <path
           d="m 420,95 a 15,15 0 1 1 -30,0 15,15 0 1 1 30,0 z"
           sodipodi:ry="15"
           sodipodi:rx="15"
           sodipodi:cy="95"
           sodipodi:cx="405"
           id="path5955"
           style="fill:#ffffff;fill-opacity:1;stroke:none"
           sodipodi:type="arc"
           transform="matrix(0.625,0,0,0.625,-22.125,274.625)" />
      </g>
      <path
         style="font-size:medium;font-style:normal;font-variant:normal;font-weight:normal;font-stretch:normal;text-indent:0;text-align:start;text-decoration:none;line-height:normal;letter-spacing:normal;word-spacing:normal;text-transform:none;direction:ltr;block-progression:tb;writing-mode:lr-tb;text-anchor:start;baseline-shift:baseline;opacity:0.25;color:#000000;fill:#000000;fill-opacity:1;stroke:none;stroke-width:4;marker:none;visibility:visible;display:inline;overflow:visible;enable-background:accumulate;font-family:Sans;-inkscape-font-specification:Sans"
         d="m 584.21875,205.0625 1.3125,0.1875 0.0312,0 0.15625,0.0312 1.0625,0.28125 0.125,0.0625 0.0625,0 1.1875,0.4375 0.96875,0.46875 0.125,0.0937 0.0312,0 1.0625,0.65625 0.1875,0.15625 2.40625,-3.21875 -0.34375,-0.25 -0.0937,-0.0625 -0.0625,-0.0625 -1.25,-0.75 -0.0937,-0.0312 -0.0625,-0.0625 -1.3125,-0.625 -0.0937,-0.0312 -0.0937,-0.0312 -1.375,-0.53125 -0.0937,-0.0312 -0.0937,0 -1.4375,-0.375 -0.0937,-0.0312 -0.125,-0.0312 -1.46875,-0.21875 -0.0937,0 -0.125,0 -0.1875,-0.0312 z m -4.53125,-3.75 -0.125,0.0312 -0.0937,0.0312 -1.4375,0.375 -0.0937,0 -0.0937,0.0312 -1.375,0.53125 -0.0937,0.0312 -0.0937,0.0312 -1.3125,0.625 -0.0625,0.0625 -0.0937,0.0312 -1.25,0.75 -0.0625,0.0625 -0.0937,0.0625 -1.15625,0.84375 -0.0625,0.0625 -0.0625,0.0625 -0.25,0.21875 2.6875,2.96875 0.0937,-0.0937 0.0937,-0.0625 0.0625,-0.0625 0.84375,-0.625 1.0625,-0.65625 0.0312,0 0.125,-0.0937 0.96875,-0.46875 1.1875,-0.4375 0.0625,0 0.125,-0.0625 1.0625,-0.28125 0.1875,-0.0312 0.1875,-0.0312 -0.625,-3.9375 z m 13.34375,8.4375 0.6875,0.90625 0.65625,1.0625 0,0.0312 0.0937,0.125 0.46875,0.96875 0.4375,1.1875 0,0.0625 0.0625,0.125 0.28125,1.0625 0.0312,0.15625 0,0.0312 0.0937,0.625 3.9375,-0.59375 -0.0937,-0.8125 -0.0312,-0.125 -0.0312,-0.0937 -0.375,-1.4375 0,-0.0937 -0.0312,-0.0937 -0.53125,-1.375 -0.0312,-0.0937 -0.0312,-0.0937 -0.625,-1.3125 -0.0625,-0.0625 -0.0312,-0.0937 -0.75,-1.25 -0.0625,-0.0625 -0.0625,-0.0937 -0.78125,-1.0625 z m -24.9375,0.0625 -0.0312,0.0937 -0.0625,0.0625 -0.625,1.3125 -0.0312,0.0937 -0.0312,0.0937 -0.53125,1.375 -0.0312,0.0937 0,0.0937 -0.375,1.4375 -0.0312,0.0937 -0.0312,0.125 -0.21875,1.46875 0,0.0937 0,0.125 -0.0312,0.625 3.96875,0.21875 0.0312,-0.4375 0.1875,-1.3125 0,-0.0312 0.0312,-0.15625 0.28125,-1.0625 0.0625,-0.125 0,-0.0625 0.4375,-1.1875 0.46875,-0.96875 0.0937,-0.125 0,-0.0312 0.65625,-1.0625 -3.4375,-2.0625 z m 27.84375,9.40625 -0.1875,1.3125 0,0.0312 -0.0312,0.15625 -0.28125,1.0625 -0.0625,0.125 0,0.0625 -0.4375,1.1875 -0.46875,0.96875 -0.0937,0.15625 -0.1875,0.3125 3.4375,2.0625 0.28125,-0.46875 0.0312,-0.0937 0.0625,-0.0625 0.625,-1.3125 0.0312,-0.0937 0.0312,-0.0937 0.53125,-1.375 0.0312,-0.0937 0,-0.0937 0.375,-1.4375 0.0312,-0.0937 0.0312,-0.125 0.21875,-1.46875 0,-0.0937 0,-0.125 0.0937,-1.53125 -4,-0.1875 z m -29.5625,2.375 0.375,1.375 0,0.0937 0.0312,0.0937 0.53125,1.375 0.0312,0.0937 0.0312,0.0937 0.625,1.3125 0.0625,0.0625 0.0312,0.0937 0.75,1.25 0.0625,0.0625 0.0625,0.0937 0.84375,1.15625 0.0625,0.0625 0.0625,0.0625 0.53125,0.59375 2.96875,-2.6875 -0.40625,-0.4375 -0.0937,-0.0937 -0.0312,-0.0625 -0.625,-0.84375 -0.65625,-1.0625 0,-0.0312 -0.0937,-0.125 -0.46875,-0.96875 -0.4375,-1.1875 -0.0312,-0.0625 -0.0312,-0.125 -0.3125,-1.1875 z m 24.96875,6.375 -0.0937,0.0937 -0.0625,0.0312 -0.84375,0.625 -1.0625,0.65625 -0.0312,0 -0.125,0.0937 -0.96875,0.46875 -1.1875,0.4375 -0.0625,0 -0.125,0.0625 -0.75,0.1875 1,3.875 0.9375,-0.25 0.0937,0 0.0937,-0.0312 1.375,-0.53125 0.0937,-0.0312 0.0937,-0.0312 1.3125,-0.625 0.0625,-0.0625 0.0937,-0.0312 1.25,-0.75 0.0625,-0.0625 0.0937,-0.0625 1.15625,-0.84375 0.0625,-0.0625 0.0625,-0.0625 0.90625,-0.8125 -2.6875,-2.96875 z m -17.375,4.40625 0.84375,0.53125 0.0937,0.0312 0.0625,0.0625 1.3125,0.625 0.0937,0.0312 0.0937,0.0312 1.375,0.53125 0.0937,0.0312 0.0937,0 1.4375,0.375 0.0937,0.0312 0.125,0.0312 1.46875,0.21875 0.0937,0 0.125,0 1.09375,0.0625 0.1875,-4 -0.875,-0.0312 -1.3125,-0.1875 -0.0312,0 -0.15625,-0.0312 -1.0625,-0.28125 -0.125,-0.0625 -0.0625,0 -1.1875,-0.4375 -0.96875,-0.46875 -0.15625,-0.0937 -0.6875,-0.40625 z"
         id="path5968"
         inkscape:connector-curvature="0" />
      <rect
         style="opacity:0.25;fill:none;stroke:#000000;stroke-width:1;stroke-linecap:square;stroke-linejoin:bevel;stroke-miterlimit:4;stroke-opacity:1;stroke-dasharray:1, 4;stroke-dashoffset:0;display:inline"
         id="rect6111-7"
         width="800"
         height="480"
         x="0"
         y="0" />
    </g>
    <g
       style="display:none"
       inkscape:label="zoomed in"
       id="g6075"
       inkscape:groupmode="layer">
      <g
         id="g6107"
         transform="matrix(0.5,0,0,0.5,346.5,203.5)">
        <path
           d="m 420,95 a 15,15 0 1 1 -30,0 15,15 0 1 1 30,0 z"
           sodipodi:ry="15"
           sodipodi:rx="15"
           sodipodi:cy="95"
           sodipodi:cx="405"
           id="path6077"
           style="fill:#ffda2d;fill-opacity:1;stroke:none"
           sodipodi:type="arc"
           transform="translate(288,312)" />
        <path
           transform="matrix(0.86666667,0,0,0.86666667,342,324.66667)"
           sodipodi:type="arc"
           style="fill:#ffffff;fill-opacity:1;stroke:none"
           id="path6079"
           sodipodi:cx="405"
           sodipodi:cy="95"
           sodipodi:rx="15"
           sodipodi:ry="15"
           d="m 420,95 a 15,15 0 1 1 -30,0 15,15 0 1 1 30,0 z" />
      </g>
      <g
         transform="matrix(0.5,0,0,0.5,272.5,107.5)"
         id="g6081">
        <path
           transform="translate(92,54)"
           sodipodi:type="arc"
           style="fill:#ff9d3d;fill-opacity:1;stroke:none"
           id="path6083"
           sodipodi:cx="405"
           sodipodi:cy="95"
           sodipodi:rx="15"
           sodipodi:ry="15"
           d="m 420,95 a 15,15 0 1 1 -30,0 15,15 0 1 1 30,0 z" />
        <path
           d="m 420,95 a 15,15 0 1 1 -30,0 15,15 0 1 1 30,0 z"
           sodipodi:ry="15"
           sodipodi:rx="15"
           sodipodi:cy="95"
           sodipodi:cx="405"
           id="path6085"
           style="fill:#ffffff;fill-opacity:1;stroke:none"
           sodipodi:type="arc"
           transform="matrix(0.96094757,0,0,0.94916246,107.81623,58.829567)" />
      </g>
      <g
         transform="matrix(0.5,0,0,0.5,235.5,72.5)"
         id="g6087">
        <path
           sodipodi:type="arc"
           style="fill:#fa6363;fill-opacity:1;stroke:none"
           id="path6089"
           sodipodi:cx="405"
           sodipodi:cy="95"
           sodipodi:rx="15"
           sodipodi:ry="15"
           d="m 420,95 a 15,15 0 1 1 -30,0 15,15 0 1 1 30,0 z" />
        <path
           d="m 420,95 a 15,15 0 1 1 -30,0 15,15 0 1 1 30,0 z"
           sodipodi:ry="15"
           sodipodi:rx="15"
           sodipodi:cy="95"
           sodipodi:cx="405"
           id="path6091"
           style="fill:#ffffff;fill-opacity:1;stroke:none"
           sodipodi:type="arc"
           transform="matrix(0.24575276,0,0,0.24575276,305.47013,71.653487)" />
      </g>
      <g
         transform="matrix(0.5,0,0,0.5,154,57.5)"
         id="g6093">
        <path
           d="m 420,95 a 15,15 0 1 1 -30,0 15,15 0 1 1 30,0 z"
           sodipodi:ry="15"
           sodipodi:rx="15"
           sodipodi:cy="95"
           sodipodi:cx="405"
           id="path6095"
           style="fill:#8fd84a;fill-opacity:1;stroke:none"
           sodipodi:type="arc"
           transform="translate(-157,40)" />
        <path
           transform="matrix(0.49324014,0,0,0.49324014,48.237744,88.142187)"
           sodipodi:type="arc"
           style="fill:#ffffff;fill-opacity:1;stroke:none"
           id="path6097"
           sodipodi:cx="405"
           sodipodi:cy="95"
           sodipodi:rx="15"
           sodipodi:ry="15"
           d="m 420,95 a 15,15 0 1 1 -30,0 15,15 0 1 1 30,0 z" />
      </g>
      <g
         transform="matrix(0.5,0,0,0.5,158.5,173)"
         id="g6099">
        <path
           d="m 420,95 a 15,15 0 1 1 -30,0 15,15 0 1 1 30,0 z"
           sodipodi:ry="15"
           sodipodi:rx="15"
           sodipodi:cy="95"
           sodipodi:cx="405"
           id="path6101"
           style="fill:#64a0de;fill-opacity:1;stroke:none"
           sodipodi:type="arc"
           transform="translate(-174,239)" />
        <path
           transform="matrix(0.625,0,0,0.625,-22.125,274.625)"
           sodipodi:type="arc"
           style="fill:#ffffff;fill-opacity:1;stroke:none"
           id="path6103"
           sodipodi:cx="405"
           sodipodi:cy="95"
           sodipodi:rx="15"
           sodipodi:ry="15"
           d="m 420,95 a 15,15 0 1 1 -30,0 15,15 0 1 1 30,0 z" />
      </g>
      <path
         inkscape:connector-curvature="0"
         id="path6105"
         d="m 583.62503,211.53905 0.65625,0.0937 0.0156,0 0.0781,0.0156 0.53125,0.14062 0.0625,0.0312 0.0312,0 0.59375,0.21875 0.48437,0.23438 0.0625,0.0468 0.0156,0 0.53125,0.32812 0.0937,0.0781 1.20313,-1.60938 -0.17188,-0.125 -0.0468,-0.0312 -0.0312,-0.0312 -0.625,-0.375 -0.0468,-0.0156 -0.0312,-0.0312 -0.65625,-0.3125 -0.0469,-0.0156 -0.0468,-0.0156 -0.6875,-0.26562 -0.0469,-0.0156 -0.0468,0 -0.71875,-0.1875 -0.0469,-0.0156 -0.0625,-0.0156 -0.73437,-0.10938 -0.0468,0 -0.0625,0 -0.0937,-0.0156 z m -2.26563,-1.875 -0.0625,0.0156 -0.0469,0.0156 -0.71875,0.1875 -0.0468,0 -0.0469,0.0156 -0.6875,0.26562 -0.0468,0.0156 -0.0469,0.0156 -0.65625,0.3125 -0.0312,0.0312 -0.0468,0.0156 -0.625,0.375 -0.0312,0.0312 -0.0469,0.0312 -0.57813,0.42188 -0.0312,0.0312 -0.0312,0.0312 -0.125,0.10937 1.34375,1.48438 0.0469,-0.0469 0.0468,-0.0312 0.0312,-0.0312 0.42188,-0.3125 0.53125,-0.32813 0.0156,0 0.0625,-0.0468 0.48438,-0.23437 0.59375,-0.21875 0.0312,0 0.0625,-0.0312 0.53125,-0.14063 0.0937,-0.0156 0.0937,-0.0156 -0.3125,-1.96875 z m 6.67188,4.21875 0.34375,0.45312 0.32812,0.53125 0,0.0156 0.0468,0.0625 0.23437,0.48438 0.21875,0.59375 0,0.0312 0.0312,0.0625 0.14063,0.53125 0.0156,0.0781 0,0.0156 0.0469,0.3125 1.96875,-0.29687 -0.0469,-0.40625 -0.0156,-0.0625 -0.0156,-0.0468 -0.1875,-0.71875 0,-0.0469 -0.0156,-0.0469 -0.26563,-0.6875 -0.0156,-0.0469 -0.0156,-0.0468 -0.3125,-0.65625 -0.0312,-0.0312 -0.0156,-0.0469 -0.375,-0.625 -0.0312,-0.0312 -0.0312,-0.0469 -0.39063,-0.53125 z m -12.46875,0.0312 -0.0156,0.0469 -0.0312,0.0312 -0.3125,0.65625 -0.0156,0.0468 -0.0156,0.0469 -0.26562,0.6875 -0.0156,0.0469 0,0.0469 -0.1875,0.71875 -0.0156,0.0469 -0.0156,0.0625 -0.10938,0.73437 0,0.0469 0,0.0625 -0.0156,0.3125 1.98438,0.10937 0.0156,-0.21875 0.0937,-0.65625 0,-0.0156 0.0156,-0.0781 0.14062,-0.53125 0.0312,-0.0625 0,-0.0312 0.21875,-0.59375 0.23438,-0.48437 0.0469,-0.0625 0,-0.0156 0.32813,-0.53125 -1.71875,-1.03125 z m 13.92187,4.70312 -0.0937,0.65625 0,0.0156 -0.0156,0.0781 -0.14063,0.53125 -0.0312,0.0625 0,0.0312 -0.21875,0.59375 -0.23437,0.48437 -0.0468,0.0781 -0.0937,0.15625 1.71875,1.03125 0.14062,-0.23438 0.0156,-0.0469 0.0312,-0.0312 0.3125,-0.65625 0.0156,-0.0468 0.0156,-0.0469 0.26563,-0.6875 0.0156,-0.0469 0,-0.0469 0.1875,-0.71875 0.0156,-0.0468 0.0156,-0.0625 0.10938,-0.73437 0,-0.0469 0,-0.0625 0.0469,-0.76563 -2,-0.0937 z m -14.78125,1.1875 0.1875,0.6875 0,0.0469 0.0156,0.0469 0.26562,0.6875 0.0156,0.0469 0.0156,0.0469 0.3125,0.65625 0.0312,0.0312 0.0156,0.0468 0.375,0.625 0.0312,0.0312 0.0312,0.0469 0.42187,0.57813 0.0312,0.0312 0.0312,0.0312 0.26563,0.29687 1.48437,-1.34375 -0.20312,-0.21875 -0.0469,-0.0469 -0.0156,-0.0312 -0.3125,-0.42187 -0.32812,-0.53125 0,-0.0156 -0.0468,-0.0625 -0.23438,-0.48438 -0.21875,-0.59375 -0.0156,-0.0312 -0.0156,-0.0625 -0.15625,-0.59375 z m 12.48438,3.1875 -0.0469,0.0469 -0.0312,0.0156 -0.42187,0.3125 -0.53125,0.32813 -0.0156,0 -0.0625,0.0469 -0.48438,0.23437 -0.59375,0.21875 -0.0312,0 -0.0625,0.0312 -0.375,0.0937 0.5,1.9375 0.46875,-0.125 0.0468,0 0.0469,-0.0156 0.6875,-0.26562 0.0468,-0.0156 0.0468,-0.0156 0.65625,-0.3125 0.0312,-0.0312 0.0469,-0.0156 0.625,-0.375 0.0312,-0.0312 0.0469,-0.0312 0.57812,-0.42188 0.0312,-0.0312 0.0312,-0.0312 0.45313,-0.40625 -1.34375,-1.48437 z m -8.6875,2.20313 0.42187,0.26562 0.0468,0.0156 0.0312,0.0312 0.65625,0.3125 0.0468,0.0156 0.0469,0.0156 0.6875,0.26563 0.0468,0.0156 0.0469,0 0.71875,0.1875 0.0468,0.0156 0.0625,0.0156 0.73437,0.10937 0.0469,0 0.0625,0 0.54687,0.0312 0.0937,-2 -0.4375,-0.0156 -0.65625,-0.0937 -0.0156,0 -0.0781,-0.0156 -0.53125,-0.14062 -0.0625,-0.0312 -0.0312,0 -0.59375,-0.21875 -0.48437,-0.23438 -0.0781,-0.0469 -0.34375,-0.20312 z"
         style="font-size:medium;font-style:normal;font-variant:normal;font-weight:normal;font-stretch:normal;text-indent:0;text-align:start;text-decoration:none;line-height:normal;letter-spacing:normal;word-spacing:normal;text-transform:none;direction:ltr;block-progression:tb;writing-mode:lr-tb;text-anchor:start;baseline-shift:baseline;opacity:0.25;color:#000000;fill:#000000;fill-opacity:1;stroke:none;stroke-width:4;marker:none;visibility:visible;display:inline;overflow:visible;enable-background:accumulate;font-family:Sans;-inkscape-font-specification:Sans" />
      <rect
         style="opacity:0.25;fill:none;stroke:#000000;stroke-width:1;stroke-linecap:square;stroke-linejoin:bevel;stroke-miterlimit:4;stroke-opacity:1;stroke-dasharray:1, 4;stroke-dashoffset:0"
         id="rect6111"
         width="200"
         height="120"
         x="358.5"
         y="93" />
    </g>
    <g
       inkscape:groupmode="layer"
       id="layer4"
       inkscape:label="barriers"
       style="display:inline">
      <rect
         y="-9.1901016"
         x="316.55762"
         height="95"
         width="206"
         id="rect5286"
         style="opacity:0.1;fill:#000000;fill-opacity:1;stroke:none"
         transform="matrix(0.88200752,0.47123534,-0.47123534,0.88200752,0,0)" />
      <rect
         transform="matrix(0.56606792,0.82435861,-0.82435861,0.56606792,0,0)"
         style="opacity:0.1;fill:#000000;fill-opacity:1;stroke:none"
         id="rect5288"
         width="192.20557"
         height="109.78897"
         x="100.77171"
         y="-90.747414" />
      <path
         style="opacity:0.1;fill:#000000;fill-opacity:1;stroke:none"
         d="M 762.0582,307.8536 403.41868,437.87118 383.94181,384.14634 693.917,271.77104 637.10777,129.53887 683.58133,113.12876 z"
         id="rect5290"
         inkscape:connector-curvature="0"
         sodipodi:nodetypes="ccccccc" />
    </g>
  </g>
</svg>
