<?xml version="1.0" encoding="UTF-8" standalone="no"?>
<!-- Created with Inkscape (http://www.inkscape.org/) -->

<svg
   xmlns:dc="http://purl.org/dc/elements/1.1/"
   xmlns:cc="http://creativecommons.org/ns#"
   xmlns:rdf="http://www.w3.org/1999/02/22-rdf-syntax-ns#"
   xmlns:svg="http://www.w3.org/2000/svg"
   xmlns="http://www.w3.org/2000/svg"
   xmlns:xlink="http://www.w3.org/1999/xlink"
   xmlns:sodipodi="http://sodipodi.sourceforge.net/DTD/sodipodi-0.dtd"
   xmlns:inkscape="http://www.inkscape.org/namespaces/inkscape"
   width="800"
   height="480"
   id="svg2"
   version="1.1"
   inkscape:version="0.48.2 r9819"
   sodipodi:docname="mock.svg">
  <defs
     id="defs4">
    <pattern
       inkscape:collect="always"
       xlink:href="#Strips1_1"
       id="pattern5271"
       patternTransform="matrix(5.171355,5.171355,-12.20563,12.20563,286.86292,359.81384)" />
    <pattern
       inkscape:stockid="Stripes 1:1"
       id="Strips1_1"
       patternTransform="translate(0,0) scale(10,10)"
       height="1"
       width="2"
       patternUnits="userSpaceOnUse"
       inkscape:collect="always">
      <rect
         id="rect4540"
         height="2"
         width="1"
         y="-0.5"
         x="0"
         style="fill:black;stroke:none" />
    </pattern>
  </defs>
  <sodipodi:namedview
     id="base"
     pagecolor="#ffffff"
     bordercolor="#666666"
     borderopacity="1.0"
     inkscape:pageopacity="0.0"
     inkscape:pageshadow="2"
     inkscape:zoom="1"
     inkscape:cx="454.23029"
     inkscape:cy="256.70876"
     inkscape:document-units="px"
     inkscape:current-layer="layer7"
     showgrid="false"
     inkscape:window-width="1600"
     inkscape:window-height="844"
     inkscape:window-x="-4"
     inkscape:window-y="-4"
     inkscape:window-maximized="1"
     showborder="false"
     inkscape:showpageshadow="false">
    <inkscape:grid
       type="xygrid"
       id="grid3046"
       empspacing="5"
       visible="true"
       enabled="true"
       snapvisiblegridlinesonly="true" />
  </sodipodi:namedview>
  <metadata
     id="metadata7">
    <rdf:RDF>
      <cc:Work
         rdf:about="">
        <dc:format>image/svg+xml</dc:format>
        <dc:type
           rdf:resource="http://purl.org/dc/dcmitype/StillImage" />
        <dc:title />
      </cc:Work>
    </rdf:RDF>
  </metadata>
  <g
     inkscape:label="bg"
     inkscape:groupmode="layer"
     id="layer1"
     transform="translate(0,-572.36218)"
     style="display:inline">
    <rect
       style="opacity:0.96860986;fill:#ffffff;fill-opacity:1;stroke:none"
       id="rect5281"
       width="800"
       height="480"
       x="0"
       y="572.36218" />
    <rect
       style="opacity:0.1;fill:url(#pattern5271);fill-opacity:1;stroke:none"
       id="rect3048"
       width="800"
       height="480"
       x="0"
       y="572.36218"
       ry="0" />
  </g>
  <g
     inkscape:groupmode="layer"
     id="layer2"
     inkscape:label="entities"
     style="display:inline">
    <g
       inkscape:groupmode="layer"
       id="layer5"
       inkscape:label="map"
       style="display:inline">
      <rect
         style="fill:#ffffff;fill-opacity:1;stroke:none"
         id="rect5284"
         width="740"
         height="420"
         x="30"
         y="30" />
    </g>
    <g
       inkscape:groupmode="layer"
       id="layer7"
       inkscape:label="emitter"
       style="display:inline">
      <path
         sodipodi:type="arc"
         style="fill:#ffffff;fill-opacity:1;stroke:#e5e5e5;stroke-width:10.87253189;stroke-linecap:square;stroke-linejoin:bevel;stroke-miterlimit:4;stroke-opacity:1;stroke-dasharray:43.49014129, 43.49014129;stroke-dashoffset:0"
         id="path3118"
         sodipodi:cx="515"
         sodipodi:cy="150.5"
         sodipodi:rx="85"
         sodipodi:ry="85"
         d="m 600,150.5 a 85,85 0 1 1 -170,0 85,85 0 1 1 170,0 z"
         transform="matrix(0.18394972,0,0,0.18394972,487.76587,189.81556)" />
      <path
         transform="matrix(0.18394972,0,0,0.18394972,765.84556,182.74449)"
         d="m 600,150.5 a 85,85 0 1 1 -170,0 85,85 0 1 1 170,0 z"
         sodipodi:ry="85"
         sodipodi:rx="85"
         sodipodi:cy="150.5"
         sodipodi:cx="515"
         id="path3888"
         style="fill:#000000;fill-opacity:1;stroke:#000000;stroke-width:10.87253189;stroke-linecap:square;stroke-linejoin:bevel;stroke-miterlimit:4;stroke-opacity:1;stroke-dasharray:none;stroke-dashoffset:0"
         sodipodi:type="arc" />
    </g>
    <g
       inkscape:groupmode="layer"
       id="layer6"
       inkscape:label="particles"
       style="display:inline">
      <path
         sodipodi:type="arc"
         style="fill:#2e3436;fill-opacity:1;stroke:none"
         id="path5438"
         sodipodi:cx="-22.5"
         sodipodi:cy="127.5"
         sodipodi:rx="2.5"
         sodipodi:ry="2.5"
         d="m -20,127.5 a 2.5,2.5 0 1 1 -5,0 2.5,2.5 0 1 1 5,0 z" />
      <path
         style="fill:#fa6363;fill-opacity:1;stroke:none"
         d="m 376.4375,38.65625 c -1.38071,0 -2.5,1.119288 -2.5,2.5 0,1.380712 1.11929,2.5 2.5,2.5 1.38071,0 2.5,-1.119288 2.5,-2.5 0,-1.380712 -1.11929,-2.5 -2.5,-2.5 z m 48.375,8.03125 c -1.38071,0 -2.5,1.119288 -2.5,2.5 0,1.380712 1.11929,2.5 2.5,2.5 1.38071,0 2.5,-1.119288 2.5,-2.5 0,-1.380712 -1.11929,-2.5 -2.5,-2.5 z M 438.375,60.875 c -1.38071,0 -2.5,1.119288 -2.5,2.5 0,1.380712 1.11929,2.5 2.5,2.5 1.38071,0 2.5,-1.119288 2.5,-2.5 0,-1.380712 -1.11929,-2.5 -2.5,-2.5 z m -18.8125,9.4375 c -1.38071,0 -2.5,1.119288 -2.5,2.5 0,1.380712 1.11929,2.5 2.5,2.5 1.38071,0 2.5,-1.119288 2.5,-2.5 0,-1.380712 -1.11929,-2.5 -2.5,-2.5 z m 6.40625,9.40625 c -1.38071,0 -2.5,1.11929 -2.5,2.5 0,1.38071 1.11929,2.5 2.5,2.5 1.38071,0 2.5,-1.11929 2.5,-2.5 0,-1.38071 -1.11929,-2.5 -2.5,-2.5 z m 15.625,0 c -1.38071,0 -2.5,1.11929 -2.5,2.5 0,1.38071 1.11929,2.5 2.5,2.5 1.38071,0 2.5,-1.11929 2.5,-2.5 0,-1.38071 -1.11929,-2.5 -2.5,-2.5 z M 376.75,81.40625 c -0.4438,0 -0.85746,0.10971 -1.21875,0.3125 -0.33995,-0.173 -0.71743,-0.28125 -1.125,-0.28125 -1.38071,0 -2.5,1.11929 -2.5,2.5 0,1.38071 1.11929,2.5 2.5,2.5 0.44608,0 0.85618,-0.13902 1.21875,-0.34375 0.34099,0.17436 0.71572,0.3125 1.125,0.3125 1.38071,0 2.5,-1.11929 2.5,-2.5 0,-1.38071 -1.11929,-2.5 -2.5,-2.5 z m 22.6875,5.875 c -1.38071,0 -2.5,1.11929 -2.5,2.5 0,1.38071 1.11929,2.5 2.5,2.5 1.38071,0 2.5,-1.11929 2.5,-2.5 0,-1.38071 -1.11929,-2.5 -2.5,-2.5 z m 19.53125,2.78125 c -1.38071,0 -2.5,1.11929 -2.5,2.5 0,1.38071 1.11929,2.5 2.5,2.5 1.38071,0 2.5,-1.11929 2.5,-2.5 0,-1.38071 -1.11929,-2.5 -2.5,-2.5 z M 348.375,97.375 c -1.38071,0 -2.5,1.11929 -2.5,2.5 0,1.38071 1.11929,2.5 2.5,2.5 1.38071,0 2.5,-1.11929 2.5,-2.5 0,-1.38071 -1.11929,-2.5 -2.5,-2.5 z m 90.875,1.46875 c -1.38071,0 -2.5,1.11929 -2.5,2.5 0,1.38071 1.11929,2.5 2.5,2.5 1.38071,0 2.5,-1.11929 2.5,-2.5 0,-1.38071 -1.11929,-2.5 -2.5,-2.5 z m -76.40625,0.25 c -1.38071,0 -2.5,1.11929 -2.5,2.5 0,1.38071 1.11929,2.5 2.5,2.5 1.38071,0 2.5,-1.11929 2.5,-2.5 0,-1.38071 -1.11929,-2.5 -2.5,-2.5 z m 35.6875,5.84375 c -1.38071,0 -2.5,1.11929 -2.5,2.5 0,1.38071 1.11929,2.5 2.5,2.5 1.38071,0 2.5,-1.11929 2.5,-2.5 0,-1.38071 -1.11929,-2.5 -2.5,-2.5 z m 16.75,7.71875 c -1.38071,0 -2.5,1.11929 -2.5,2.5 0,1.38071 1.11929,2.5 2.5,2.5 1.38071,0 2.5,-1.11929 2.5,-2.5 0,-1.38071 -1.11929,-2.5 -2.5,-2.5 z M 388.5,117 c -1.38071,0 -2.5,1.11929 -2.5,2.5 0,1.38071 1.11929,2.5 2.5,2.5 0.53387,0 1.03139,-0.18365 1.4375,-0.46875 -0.0258,0.14394 -0.0625,0.28615 -0.0625,0.4375 0,1.38071 1.11929,2.5 2.5,2.5 1.38071,0 2.5,-1.11929 2.5,-2.5 0,-1.38071 -1.11929,-2.5 -2.5,-2.5 -0.54308,0 -1.02751,0.17462 -1.4375,0.46875 0.0258,-0.14393 0.0625,-0.28615 0.0625,-0.4375 0,-1.38071 -1.11929,-2.5 -2.5,-2.5 z m 61.25,9.40625 c -1.38071,0 -2.5,1.11929 -2.5,2.5 0,1.38071 1.11929,2.5 2.5,2.5 1.38071,0 2.5,-1.11929 2.5,-2.5 0,-1.38071 -1.11929,-2.5 -2.5,-2.5 z M 415,130.5625 c -1.38071,0 -2.5,1.11929 -2.5,2.5 0,1.38071 1.11929,2.5 2.5,2.5 1.38071,0 2.5,-1.11929 2.5,-2.5 0,-1.38071 -1.11929,-2.5 -2.5,-2.5 z m 7.15625,5.15625 c -1.38071,0 -2.5,1.11929 -2.5,2.5 0,1.38071 1.11929,2.5 2.5,2.5 1.38071,0 2.5,-1.11929 2.5,-2.5 0,-1.38071 -1.11929,-2.5 -2.5,-2.5 z"
         id="path5775"
         inkscape:connector-curvature="0" />
      <path
         style="fill:#97e258;fill-opacity:1;stroke:none"
         d="m 268.4375,99.71875 c -1.38071,0 -2.5,1.11929 -2.5,2.5 0,1.38071 1.11929,2.5 2.5,2.5 1.38071,0 2.5,-1.11929 2.5,-2.5 0,-1.38071 -1.11929,-2.5 -2.5,-2.5 z m -25.78125,1.9375 c -1.38071,0 -2.5,1.11929 -2.5,2.5 0,1.38071 1.11929,2.5 2.5,2.5 1.38071,0 2.5,-1.11929 2.5,-2.5 0,-1.38071 -1.11929,-2.5 -2.5,-2.5 z m -9.21875,8.5625 c -1.38071,0 -2.5,1.11929 -2.5,2.5 0,1.38071 1.11929,2.5 2.5,2.5 1.38071,0 2.5,-1.11929 2.5,-2.5 0,-1.38071 -1.11929,-2.5 -2.5,-2.5 z m -17.5,1.34375 c -1.38071,0 -2.5,1.11929 -2.5,2.5 0,1.38071 1.11929,2.5 2.5,2.5 1.38071,0 2.5,-1.11929 2.5,-2.5 0,-1.38071 -1.11929,-2.5 -2.5,-2.5 z M 246.5,144.59375 c -1.38071,0 -2.5,1.11929 -2.5,2.5 0,1.38071 1.11929,2.5 2.5,2.5 1.38071,0 2.5,-1.11929 2.5,-2.5 0,-1.38071 -1.11929,-2.5 -2.5,-2.5 z m 27.71875,1.75 c -1.38071,0 -2.5,1.11929 -2.5,2.5 0,1.38071 1.11929,2.5 2.5,2.5 1.38071,0 2.5,-1.11929 2.5,-2.5 0,-1.38071 -1.11929,-2.5 -2.5,-2.5 z m -21.03125,2.71875 c -1.38071,0 -2.5,1.11929 -2.5,2.5 0,1.38071 1.11929,2.5 2.5,2.5 1.38071,0 2.5,-1.11929 2.5,-2.5 0,-1.38071 -1.11929,-2.5 -2.5,-2.5 z m -30.65625,1.46875 c -1.38071,0 -2.5,1.11929 -2.5,2.5 0,1.38071 1.11929,2.5 2.5,2.5 1.38071,0 2.5,-1.11929 2.5,-2.5 0,-1.38071 -1.11929,-2.5 -2.5,-2.5 z"
         id="path5858"
         inkscape:connector-curvature="0"
         sodipodi:nodetypes="ssssssssssssssssssssssssssssssssssssssss" />
      <path
         style="fill:#6baff5;fill-opacity:1;stroke:none"
         d="m 217.5625,283.1875 c -1.38071,0 -2.5,1.11929 -2.5,2.5 0,1.38071 1.11929,2.5 2.5,2.5 1.38071,0 2.5,-1.11929 2.5,-2.5 0,-1.38071 -1.11929,-2.5 -2.5,-2.5 z m -80.5,28.5625 c -1.38071,0 -2.5,1.11929 -2.5,2.5 0,1.38071 1.11929,2.5 2.5,2.5 1.38071,0 2.5,-1.11929 2.5,-2.5 0,-1.38071 -1.11929,-2.5 -2.5,-2.5 z m 137.375,17.46875 c -1.38071,0 -2.5,1.11929 -2.5,2.5 0,1.38071 1.11929,2.5 2.5,2.5 1.38071,0 2.5,-1.11929 2.5,-2.5 0,-1.38071 -1.11929,-2.5 -2.5,-2.5 z M 139,365.9375 c -1.38071,0 -2.5,1.11929 -2.5,2.5 0,1.38071 1.11929,2.5 2.5,2.5 1.38071,0 2.5,-1.11929 2.5,-2.5 0,-1.38071 -1.11929,-2.5 -2.5,-2.5 z m 110.75,1.59375 c -1.38071,0 -2.5,1.11929 -2.5,2.5 0,1.38071 1.11929,2.5 2.5,2.5 1.38071,0 2.5,-1.11929 2.5,-2.5 0,-1.38071 -1.11929,-2.5 -2.5,-2.5 z m -34.40625,4.625 c -1.38071,0 -2.5,1.11929 -2.5,2.5 0,1.38071 1.11929,2.5 2.5,2.5 1.38071,0 2.5,-1.11929 2.5,-2.5 0,-1.38071 -1.11929,-2.5 -2.5,-2.5 z M 312,388.71875 c -1.38071,0 -2.5,1.11929 -2.5,2.5 0,1.38071 1.11929,2.5 2.5,2.5 1.38071,0 2.5,-1.11929 2.5,-2.5 0,-1.38071 -1.11929,-2.5 -2.5,-2.5 z m -133.96875,12.4375 c -1.38071,0 -2.5,1.11929 -2.5,2.5 0,1.38071 1.11929,2.5 2.5,2.5 1.38071,0 2.5,-1.11929 2.5,-2.5 0,-1.38071 -1.11929,-2.5 -2.5,-2.5 z m 24.09375,5.75 c -1.38071,0 -2.5,1.11929 -2.5,2.5 0,1.38071 1.11929,2.5 2.5,2.5 1.38071,0 2.5,-1.11929 2.5,-2.5 0,-1.38071 -1.11929,-2.5 -2.5,-2.5 z m -26.03125,2.96875 c -1.38071,0 -2.5,1.11929 -2.5,2.5 0,1.38071 1.11929,2.5 2.5,2.5 1.38071,0 2.5,-1.11929 2.5,-2.5 0,-1.38071 -1.11929,-2.5 -2.5,-2.5 z"
         id="path5886"
         inkscape:connector-curvature="0" />
      <path
         style="fill:#ffdb28;fill-opacity:1;stroke:none"
         d="m 675.21875,364.84375 c -1.38071,0 -2.5,1.11929 -2.5,2.5 0,1.38071 1.11929,2.5 2.5,2.5 1.38071,0 2.5,-1.11929 2.5,-2.5 0,-1.38071 -1.11929,-2.5 -2.5,-2.5 z m 22.125,17.53125 c -1.38071,0 -2.5,1.11929 -2.5,2.5 0,1.38071 1.11929,2.5 2.5,2.5 1.38071,0 2.5,-1.11929 2.5,-2.5 0,-1.38071 -1.11929,-2.5 -2.5,-2.5 z m -51.625,-102.28125 c -1.38071,0 -2.5,1.11929 -2.5,2.5 0,1.38071 1.11929,2.5 2.5,2.5 1.38071,0 2.5,-1.11929 2.5,-2.5 0,-1.38071 -1.11929,-2.5 -2.5,-2.5 z m 6.40625,124.8125 c -1.38071,0 -2.5,1.11929 -2.5,2.5 0,1.38071 1.11929,2.5 2.5,2.5 1.38071,0 2.5,-1.11929 2.5,-2.5 0,-1.38071 -1.11929,-2.5 -2.5,-2.5 z m 44.53125,9.6875 c -1.38071,0 -2.5,1.11929 -2.5,2.5 0,1.38071 1.11929,2.5 2.5,2.5 1.38071,0 2.5,-1.11929 2.5,-2.5 0,-1.38071 -1.11929,-2.5 -2.5,-2.5 z"
         id="path5933"
         inkscape:connector-curvature="0"
         sodipodi:nodetypes="sssssssssssssssssssssssss" />
      <path
         style="fill:none;fill-opacity:1;stroke:#c8c8c8;stroke-opacity:1"
         d="m 605.20283,175.7555 c -1.38071,0 -2.5,1.11929 -2.5,2.5 0,1.38071 1.11929,2.5 2.5,2.5 1.38071,0 2.5,-1.11929 2.5,-2.5 0,-1.38071 -1.11929,-2.5 -2.5,-2.5 z m 36.1875,12.6875 c -1.38071,0 -2.5,1.11929 -2.5,2.5 0,1.38071 1.11929,2.5 2.5,2.5 1.38071,0 2.5,-1.11929 2.5,-2.5 0,-1.38071 -1.11929,-2.5 -2.5,-2.5 z m -102.96875,53.5 c -1.38071,0 -2.5,1.11929 -2.5,2.5 0,1.38071 1.11929,2.5 2.5,2.5 1.38071,0 2.5,-1.11929 2.5,-2.5 0,-1.38071 -1.11929,-2.5 -2.5,-2.5 z m 5.4375,10.09375 c -1.38071,0 -2.5,1.11929 -2.5,2.5 0,1.38071 1.11929,2.5 2.5,2.5 1.38071,0 2.5,-1.11929 2.5,-2.5 0,-1.38071 -1.11929,-2.5 -2.5,-2.5 z m 48.8125,3.78125 c -1.38071,0 -2.5,1.11929 -2.5,2.5 0,1.38071 1.11929,2.5 2.5,2.5 1.38071,0 2.5,-1.11929 2.5,-2.5 0,-1.38071 -1.11929,-2.5 -2.5,-2.5 z"
         id="path6001"
         inkscape:connector-curvature="0" />
      <path
         d="m -20,127.5 a 2.5,2.5 0 1 1 -5,0 2.5,2.5 0 1 1 5,0 z"
         sodipodi:ry="2.5"
         sodipodi:rx="2.5"
         sodipodi:cy="127.5"
         sodipodi:cx="-22.5"
         id="path6015"
         style="fill:#2e3436;fill-opacity:1;stroke:none"
         sodipodi:type="arc"
         transform="translate(736.12581,-83.689863)" />
      <path
         style="fill:#2e3436;fill-opacity:1;stroke:#2e3436"
         d="m 723.8186,-4.0826564 c -1.38071,0 -2.5,1.119288 -2.5,2.5 0,1.38071195 1.11929,2.49999995 2.5,2.49999995 1.38071,0 2.5,-1.119288 2.5,-2.49999995 0,-1.380712 -1.11929,-2.5 -2.5,-2.5 z m 10.3125,2.96875 c -1.38071,0 -2.5,1.11928795 -2.5,2.5 0,1.380712 1.11929,2.5 2.5,2.5 1.38071,0 2.5,-1.119288 2.5,-2.5 0,-1.38071205 -1.11929,-2.5 -2.5,-2.5 z m -6.46875,4.34375 c -1.38071,0 -2.5,1.119288 -2.5,2.5 0,1.380712 1.11929,2.5 2.5,2.5 1.38071,0 2.5,-1.119288 2.5,-2.5 0,-1.380712 -1.11929,-2.5 -2.5,-2.5 z m 16,4.375 c -1.38071,0 -2.5,1.119288 -2.5,2.5000004 0,1.380712 1.11929,2.5 2.5,2.5 1.38071,0 2.5,-1.119288 2.5,-2.5 0,-1.3807124 -1.11929,-2.5000004 -2.5,-2.5000004 z m -37.3125,13.5937504 c -1.38071,0 -2.5,1.119288 -2.5,2.5 0,1.380712 1.11929,2.5 2.5,2.5 1.38071,0 2.5,-1.119288 2.5,-2.5 0,-1.380712 -1.11929,-2.5 -2.5,-2.5 z m -25.71875,21.40625 c -1.38071,0 -2.5,1.119288 -2.5,2.5 0,1.380712 1.11929,2.5 2.5,2.5 1.38071,0 2.5,-1.119288 2.5,-2.5 0,-1.380712 -1.11929,-2.5 -2.5,-2.5 z m 7.625,6.3125 c -1.38071,0 -2.5,1.119288 -2.5,2.5 0,1.380712 1.11929,2.5 2.5,2.5 1.38071,0 2.5,-1.119288 2.5,-2.5 0,-1.380712 -1.11929,-2.5 -2.5,-2.5 z m -44,7.593746 c -1.38071,0 -2.5,1.11929 -2.5,2.5 0,1.38071 1.11929,2.5 2.5,2.5 1.38071,0 2.5,-1.11929 2.5,-2.5 0,-1.38071 -1.11929,-2.5 -2.5,-2.5 z m -8.03125,7.71875 c -1.38071,0 -2.5,1.11929 -2.5,2.5 0,1.38071 1.11929,2.5 2.5,2.5 1.38071,0 2.5,-1.11929 2.5,-2.5 0,-1.38071 -1.11929,-2.5 -2.5,-2.5 z m 9.96875,11.875 c -1.38071,0 -2.5,1.11929 -2.5,2.5 0,1.38071 1.11929,2.5 2.5,2.5 1.38071,0 2.5,-1.11929 2.5,-2.5 0,-1.38071 -1.11929,-2.5 -2.5,-2.5 z m -16.8125,3.3125 c -1.38071,0 -2.5,1.11929 -2.5,2.5 0,1.38071 1.11929,2.5 2.5,2.5 1.38071,0 2.5,-1.11929 2.5,-2.5 0,-1.38071 -1.11929,-2.5 -2.5,-2.5 z m 13.78125,22.09375 c -1.38071,0 -2.5,1.11929 -2.5,2.5 0,1.38071 1.11929,2.5 2.5,2.5 1.38071,0 2.5,-1.11929 2.5,-2.5 0,-1.38071 -1.11929,-2.5 -2.5,-2.5 z m -15.375,35.28125 c -1.38071,0 -2.5,1.11929 -2.5,2.5 0,1.38071 1.11929,2.5 2.5,2.5 1.38071,0 2.5,-1.11929 2.5,-2.5 0,-1.38071 -1.11929,-2.5 -2.5,-2.5 z"
         id="path6017"
         inkscape:connector-curvature="0" />
    </g>
    <g
       inkscape:groupmode="layer"
       id="layer3"
       inkscape:label="zoomed out"
       style="display:inline">
      <g
         id="g6124">
        <path
           transform="translate(288,312)"
           sodipodi:type="arc"
           style="fill:#ffdb28;fill-opacity:1;stroke:#ffffff"
           id="path5301"
           sodipodi:cx="405"
           sodipodi:cy="95"
           sodipodi:rx="15"
           sodipodi:ry="15"
           d="m 420,95 a 15,15 0 1 1 -30,0 15,15 0 1 1 30,0 z" />
        <path
           d="m 420,95 a 15,15 0 1 1 -30,0 15,15 0 1 1 30,0 z"
           sodipodi:ry="15"
           sodipodi:rx="15"
           sodipodi:cy="95"
           sodipodi:cx="405"
           id="path5947"
           style="fill:#ffffff;fill-opacity:1;stroke:none"
           sodipodi:type="arc"
           transform="matrix(0.86666667,0,0,0.86666667,342,324.66667)" />
      </g>
      <g
         id="g6071"
         transform="translate(24,33)">
        <path
           d="m 420,95 a 15,15 0 1 1 -30,0 15,15 0 1 1 30,0 z"
           sodipodi:ry="15"
           sodipodi:rx="15"
           sodipodi:cy="95"
           sodipodi:cx="405"
           id="path5297"
           style="fill:#ffb228;fill-opacity:1;stroke:#ffffff;stroke-opacity:1"
           sodipodi:type="arc"
           transform="translate(92,54)" />
        <path
           transform="matrix(0.82761423,0,0,0.81746434,161.81623,71.340889)"
           sodipodi:type="arc"
           style="fill:#ffffff;fill-opacity:1;stroke:none"
           id="path5949"
           sodipodi:cx="405"
           sodipodi:cy="95"
           sodipodi:rx="15"
           sodipodi:ry="15"
           d="m 420,95 a 15,15 0 1 1 -30,0 15,15 0 1 1 30,0 z" />
      </g>
      <g
         id="g6055"
         transform="translate(33,25)">
        <path
           d="m 420,95 a 15,15 0 1 1 -30,0 15,15 0 1 1 30,0 z"
           sodipodi:ry="15"
           sodipodi:rx="15"
           sodipodi:cy="95"
           sodipodi:cx="405"
           id="path5293"
           style="fill:#fa6363;fill-opacity:1;stroke:#ffffff"
           sodipodi:type="arc" />
        <path
           transform="matrix(0.24575276,0,0,0.24575276,305.47013,71.653487)"
           sodipodi:type="arc"
           style="fill:#ffffff;fill-opacity:1;stroke:none"
           id="path5951"
           sodipodi:cx="405"
           sodipodi:cy="95"
           sodipodi:rx="15"
           sodipodi:ry="15"
           d="m 420,95 a 15,15 0 1 1 -30,0 15,15 0 1 1 30,0 z" />
      </g>
      <g
         id="g6059"
         transform="translate(30,-10)">
        <path
           transform="translate(-157,40)"
           sodipodi:type="arc"
           style="fill:#97e258;fill-opacity:1;stroke:#ffffff"
           id="path5299"
           sodipodi:cx="405"
           sodipodi:cy="95"
           sodipodi:rx="15"
           sodipodi:ry="15"
           d="m 420,95 a 15,15 0 1 1 -30,0 15,15 0 1 1 30,0 z" />
        <path
           d="m 420,95 a 15,15 0 1 1 -30,0 15,15 0 1 1 30,0 z"
           sodipodi:ry="15"
           sodipodi:rx="15"
           sodipodi:cy="95"
           sodipodi:cx="405"
           id="path5953"
           style="fill:#ffffff;fill-opacity:1;stroke:none"
           sodipodi:type="arc"
           transform="matrix(0.49324014,0,0,0.49324014,48.237744,88.142187)" />
      </g>
      <g
         id="g6063"
         transform="translate(43,6)">
        <path
           transform="translate(-174,239)"
           sodipodi:type="arc"
           style="fill:#6baff5;fill-opacity:1;stroke:#ffffff"
           id="path5295"
           sodipodi:cx="405"
           sodipodi:cy="95"
           sodipodi:rx="15"
           sodipodi:ry="15"
           d="m 420,95 a 15,15 0 1 1 -30,0 15,15 0 1 1 30,0 z" />
        <path
           d="m 420,95 a 15,15 0 1 1 -30,0 15,15 0 1 1 30,0 z"
           sodipodi:ry="15"
           sodipodi:rx="15"
           sodipodi:cy="95"
           sodipodi:cx="405"
           id="path5955"
           style="fill:#ffffff;fill-opacity:1;stroke:none"
           sodipodi:type="arc"
           transform="matrix(0.625,0,0,0.625,-22.125,274.625)" />
      </g>
      <rect
         style="opacity:0.25;fill:none;stroke:#000000;stroke-width:1;stroke-linecap:square;stroke-linejoin:bevel;stroke-miterlimit:4;stroke-opacity:1;stroke-dasharray:1, 4;stroke-dashoffset:0;display:inline"
         id="rect6111-7"
         width="800"
         height="480"
         x="0"
         y="0" />
    </g>
    <g
       style="display:none"
       inkscape:label="zoomed in"
       id="g6075"
       inkscape:groupmode="layer">
      <g
         id="g6107"
         transform="matrix(0.5,0,0,0.5,346.5,203.5)">
        <path
           d="m 420,95 a 15,15 0 1 1 -30,0 15,15 0 1 1 30,0 z"
           sodipodi:ry="15"
           sodipodi:rx="15"
           sodipodi:cy="95"
           sodipodi:cx="405"
           id="path6077"
           style="fill:#ffda2d;fill-opacity:1;stroke:none"
           sodipodi:type="arc"
           transform="translate(288,312)" />
        <path
           transform="matrix(0.86666667,0,0,0.86666667,342,324.66667)"
           sodipodi:type="arc"
           style="fill:#ffffff;fill-opacity:1;stroke:none"
           id="path6079"
           sodipodi:cx="405"
           sodipodi:cy="95"
           sodipodi:rx="15"
           sodipodi:ry="15"
           d="m 420,95 a 15,15 0 1 1 -30,0 15,15 0 1 1 30,0 z" />
      </g>
      <g
         transform="matrix(0.5,0,0,0.5,272.5,107.5)"
         id="g6081">
        <path
           transform="translate(92,54)"
           sodipodi:type="arc"
           style="fill:#ff9d3d;fill-opacity:1;stroke:none"
           id="path6083"
           sodipodi:cx="405"
           sodipodi:cy="95"
           sodipodi:rx="15"
           sodipodi:ry="15"
           d="m 420,95 a 15,15 0 1 1 -30,0 15,15 0 1 1 30,0 z" />
        <path
           d="m 420,95 a 15,15 0 1 1 -30,0 15,15 0 1 1 30,0 z"
           sodipodi:ry="15"
           sodipodi:rx="15"
           sodipodi:cy="95"
           sodipodi:cx="405"
           id="path6085"
           style="fill:#ffffff;fill-opacity:1;stroke:none"
           sodipodi:type="arc"
           transform="matrix(0.96094757,0,0,0.94916246,107.81623,58.829567)" />
      </g>
      <g
         transform="matrix(0.5,0,0,0.5,235.5,72.5)"
         id="g6087">
        <path
           sodipodi:type="arc"
           style="fill:#fa6363;fill-opacity:1;stroke:none"
           id="path6089"
           sodipodi:cx="405"
           sodipodi:cy="95"
           sodipodi:rx="15"
           sodipodi:ry="15"
           d="m 420,95 a 15,15 0 1 1 -30,0 15,15 0 1 1 30,0 z" />
        <path
           d="m 420,95 a 15,15 0 1 1 -30,0 15,15 0 1 1 30,0 z"
           sodipodi:ry="15"
           sodipodi:rx="15"
           sodipodi:cy="95"
           sodipodi:cx="405"
           id="path6091"
           style="fill:#ffffff;fill-opacity:1;stroke:none"
           sodipodi:type="arc"
           transform="matrix(0.24575276,0,0,0.24575276,305.47013,71.653487)" />
      </g>
      <g
         transform="matrix(0.5,0,0,0.5,154,57.5)"
         id="g6093">
        <path
           d="m 420,95 a 15,15 0 1 1 -30,0 15,15 0 1 1 30,0 z"
           sodipodi:ry="15"
           sodipodi:rx="15"
           sodipodi:cy="95"
           sodipodi:cx="405"
           id="path6095"
           style="fill:#8fd84a;fill-opacity:1;stroke:none"
           sodipodi:type="arc"
           transform="translate(-157,40)" />
        <path
           transform="matrix(0.49324014,0,0,0.49324014,48.237744,88.142187)"
           sodipodi:type="arc"
           style="fill:#ffffff;fill-opacity:1;stroke:none"
           id="path6097"
           sodipodi:cx="405"
           sodipodi:cy="95"
           sodipodi:rx="15"
           sodipodi:ry="15"
           d="m 420,95 a 15,15 0 1 1 -30,0 15,15 0 1 1 30,0 z" />
      </g>
      <g
         transform="matrix(0.5,0,0,0.5,158.5,173)"
         id="g6099">
        <path
           d="m 420,95 a 15,15 0 1 1 -30,0 15,15 0 1 1 30,0 z"
           sodipodi:ry="15"
           sodipodi:rx="15"
           sodipodi:cy="95"
           sodipodi:cx="405"
           id="path6101"
           style="fill:#64a0de;fill-opacity:1;stroke:none"
           sodipodi:type="arc"
           transform="translate(-174,239)" />
        <path
           transform="matrix(0.625,0,0,0.625,-22.125,274.625)"
           sodipodi:type="arc"
           style="fill:#ffffff;fill-opacity:1;stroke:none"
           id="path6103"
           sodipodi:cx="405"
           sodipodi:cy="95"
           sodipodi:rx="15"
           sodipodi:ry="15"
           d="m 420,95 a 15,15 0 1 1 -30,0 15,15 0 1 1 30,0 z" />
      </g>
      <rect
         style="opacity:0.25;fill:none;stroke:#000000;stroke-width:1;stroke-linecap:square;stroke-linejoin:bevel;stroke-miterlimit:4;stroke-opacity:1;stroke-dasharray:1, 4;stroke-dashoffset:0"
         id="rect6111"
         width="200"
         height="120"
         x="358.5"
         y="93" />
    </g>
    <g
       inkscape:groupmode="layer"
       id="layer4"
       inkscape:label="barriers"
       style="opacity:1;display:inline">
      <rect
         y="-9.1901016"
         x="316.55762"
         height="95"
         width="206"
         id="rect5286"
         style="fill:#e5e5e5;fill-opacity:1;stroke:none"
         transform="matrix(0.88200752,0.47123534,-0.47123534,0.88200752,0,0)" />
      <rect
         transform="matrix(0.56606792,0.82435861,-0.82435861,0.56606792,0,0)"
         style="fill:#e5e5e5;fill-opacity:1;stroke:none"
         id="rect5288"
         width="192.20557"
         height="109.78897"
         x="100.77171"
         y="-90.747414" />
      <path
         style="fill:#e5e5e5;fill-opacity:1;stroke:none"
         d="M 762.0582,307.8536 403.41868,437.87118 383.94181,384.14634 693.917,271.77104 637.10777,129.53887 683.58133,113.12876 z"
         id="rect5290"
         inkscape:connector-curvature="0"
         sodipodi:nodetypes="ccccccc" />
    </g>
  </g>
  <g
     inkscape:groupmode="layer"
     id="layer8"
     inkscape:label="palette"
     style="display:none">
    <rect
       style="fill:#d2d2d2;fill-opacity:1;stroke:none;display:inline"
       id="rect5284-1"
       width="740"
       height="420"
       x="30"
       y="30" />
    <path
       sodipodi:type="arc"
       style="fill:#ffffff;fill-opacity:1;stroke:#ffffff;stroke-width:4;stroke-linecap:square;stroke-linejoin:bevel;stroke-miterlimit:4;stroke-opacity:1;stroke-dasharray:none;stroke-dashoffset:0"
       id="path4623"
       sodipodi:cx="126.57211"
       sodipodi:cy="67.049637"
       sodipodi:rx="44.547726"
       sodipodi:ry="44.547726"
       d="m 171.11984,67.049637 a 44.547726,44.547726 0 1 1 -89.095453,0 44.547726,44.547726 0 1 1 89.095453,0 z"
       transform="translate(77.59798,73.610173)" />
    <path
       transform="translate(73.890873,250.96046)"
       d="m 171.11984,67.049637 a 44.547726,44.547726 0 1 1 -89.095453,0 44.547726,44.547726 0 1 1 89.095453,0 z"
       sodipodi:ry="44.547726"
       sodipodi:rx="44.547726"
       sodipodi:cy="67.049637"
       sodipodi:cx="126.57211"
       id="path4625"
       style="fill:#000000;fill-opacity:1;stroke:#ffffff;stroke-width:4;stroke-linecap:square;stroke-linejoin:bevel;stroke-miterlimit:4;stroke-opacity:1;stroke-dasharray:none;stroke-dashoffset:0"
       sodipodi:type="arc" />
    <path
       sodipodi:type="arc"
       style="fill:#b582de;fill-opacity:1;stroke:#ffffff;stroke-width:4;stroke-linecap:square;stroke-linejoin:bevel;stroke-miterlimit:4;stroke-opacity:1;stroke-dasharray:none;stroke-dashoffset:0"
       id="path4627"
       sodipodi:cx="126.57211"
       sodipodi:cy="67.049637"
       sodipodi:rx="44.547726"
       sodipodi:ry="44.547726"
       d="m 171.11984,67.049637 a 44.547726,44.547726 0 1 1 -89.095453,0 44.547726,44.547726 0 1 1 89.095453,0 z"
       transform="translate(506.28846,62.932502)" />
    <path
       transform="translate(522.55191,197.9899)"
       d="m 171.11984,67.049637 a 44.547726,44.547726 0 1 1 -89.095453,0 44.547726,44.547726 0 1 1 89.095453,0 z"
       sodipodi:ry="44.547726"
       sodipodi:rx="44.547726"
       sodipodi:cy="67.049637"
       sodipodi:cx="126.57211"
       id="path4629"
       style="fill:#6baff5;fill-opacity:1;stroke:#ffffff;stroke-width:4;stroke-linecap:square;stroke-linejoin:bevel;stroke-miterlimit:4;stroke-opacity:1;stroke-dasharray:none;stroke-dashoffset:0"
       sodipodi:type="arc" />
    <path
       sodipodi:type="arc"
       style="fill:#6cffce;fill-opacity:1;stroke:#ffffff;stroke-width:4;stroke-linecap:square;stroke-linejoin:bevel;stroke-miterlimit:4;stroke-opacity:1;stroke-dasharray:none;stroke-dashoffset:0"
       id="path4631"
       sodipodi:cx="126.57211"
       sodipodi:cy="67.049637"
       sodipodi:rx="44.547726"
       sodipodi:ry="44.547726"
       d="m 171.11984,67.049637 a 44.547726,44.547726 0 1 1 -89.095453,0 44.547726,44.547726 0 1 1 89.095453,0 z"
       transform="translate(393.85848,292.0351)" />
    <path
       transform="translate(388.90873,9.1923866)"
       d="m 171.11984,67.049637 a 44.547726,44.547726 0 1 1 -89.095453,0 44.547726,44.547726 0 1 1 89.095453,0 z"
       sodipodi:ry="44.547726"
       sodipodi:rx="44.547726"
       sodipodi:cy="67.049637"
       sodipodi:cx="126.57211"
       id="path4633"
       style="fill:#fa6363;fill-opacity:1;stroke:#ffffff;stroke-width:4;stroke-linecap:square;stroke-linejoin:bevel;stroke-miterlimit:4;stroke-opacity:1;stroke-dasharray:none;stroke-dashoffset:0"
       sodipodi:type="arc" />
    <path
       sodipodi:type="arc"
       style="fill:#ffdb28;fill-opacity:1;stroke:#ffffff;stroke-width:4;stroke-linecap:square;stroke-linejoin:bevel;stroke-miterlimit:4;stroke-opacity:1;stroke-dasharray:none;stroke-dashoffset:0"
       id="path4635"
       sodipodi:cx="126.57211"
       sodipodi:cy="67.049637"
       sodipodi:rx="44.547726"
       sodipodi:ry="44.547726"
       d="m 171.11984,67.049637 a 44.547726,44.547726 0 1 1 -89.095453,0 44.547726,44.547726 0 1 1 89.095453,0 z"
       transform="translate(272.23611,86.267026)" />
    <path
       transform="translate(271.529,214.25335)"
       d="m 171.11984,67.049637 a 44.547726,44.547726 0 1 1 -89.095453,0 44.547726,44.547726 0 1 1 89.095453,0 z"
       sodipodi:ry="44.547726"
       sodipodi:rx="44.547726"
       sodipodi:cy="67.049637"
       sodipodi:cx="126.57211"
       id="path4637"
       style="fill:#97e258;fill-opacity:1;stroke:#ffffff;stroke-width:4;stroke-linecap:square;stroke-linejoin:bevel;stroke-miterlimit:4;stroke-opacity:1;stroke-dasharray:none;stroke-dashoffset:0"
       sodipodi:type="arc" />
    <path
       transform="translate(294.86353,-7.7781759)"
       d="m 171.11984,67.049637 a 44.547726,44.547726 0 1 1 -89.095453,0 44.547726,44.547726 0 1 1 89.095453,0 z"
       sodipodi:ry="44.547726"
       sodipodi:rx="44.547726"
       sodipodi:cy="67.049637"
       sodipodi:cx="126.57211"
       id="path4639"
       style="fill:#fd922d;fill-opacity:1;stroke:#ffffff;stroke-width:4;stroke-linecap:square;stroke-linejoin:bevel;stroke-miterlimit:4;stroke-opacity:1;stroke-dasharray:none;stroke-dashoffset:0"
       sodipodi:type="arc" />
    <path
       transform="translate(477.29708,-26.870059)"
       d="m 171.11984,67.049637 a 44.547726,44.547726 0 1 1 -89.095453,0 44.547726,44.547726 0 1 1 89.095453,0 z"
       sodipodi:ry="44.547726"
       sodipodi:rx="44.547726"
       sodipodi:cy="67.049637"
       sodipodi:cx="126.57211"
       id="path4641"
       style="fill:#ec5ea7;fill-opacity:1;stroke:#ffffff;stroke-width:4;stroke-linecap:square;stroke-linejoin:bevel;stroke-miterlimit:4;stroke-opacity:1;stroke-dasharray:none;stroke-dashoffset:0"
       sodipodi:type="arc" />
    <path
       transform="translate(586.89863,117.37972)"
       d="m 171.11984,67.049637 a 44.547726,44.547726 0 1 1 -89.095453,0 44.547726,44.547726 0 1 1 89.095453,0 z"
       sodipodi:ry="44.547726"
       sodipodi:rx="44.547726"
       sodipodi:cy="67.049637"
       sodipodi:cx="126.57211"
       id="path4643"
       style="fill:#8884ed;fill-opacity:1;stroke:#ffffff;stroke-width:4;stroke-linecap:square;stroke-linejoin:bevel;stroke-miterlimit:4;stroke-opacity:1;stroke-dasharray:none;stroke-dashoffset:0"
       sodipodi:type="arc" />
    <path
       transform="translate(514.06663,311.83409)"
       d="m 171.11984,67.049637 a 44.547726,44.547726 0 1 1 -89.095453,0 44.547726,44.547726 0 1 1 89.095453,0 z"
       sodipodi:ry="44.547726"
       sodipodi:rx="44.547726"
       sodipodi:cy="67.049637"
       sodipodi:cx="126.57211"
       id="path4645"
       style="fill:#4eeefc;fill-opacity:1;stroke:#ffffff;stroke-width:4;stroke-linecap:square;stroke-linejoin:bevel;stroke-miterlimit:4;stroke-opacity:1;stroke-dasharray:none;stroke-dashoffset:0"
       sodipodi:type="arc" />
    <path
       sodipodi:type="arc"
       style="fill:#8af797;fill-opacity:1;stroke:#ffffff;stroke-width:4;stroke-linecap:square;stroke-linejoin:bevel;stroke-miterlimit:4;stroke-opacity:1;stroke-dasharray:none;stroke-dashoffset:0"
       id="path4647"
       sodipodi:cx="126.57211"
       sodipodi:cy="67.049637"
       sodipodi:rx="44.547726"
       sodipodi:ry="44.547726"
       d="m 171.11984,67.049637 a 44.547726,44.547726 0 1 1 -89.095453,0 44.547726,44.547726 0 1 1 89.095453,0 z"
       transform="translate(276.47875,325.26911)" />
    <path
       transform="translate(185.26198,152.02796)"
       d="m 171.11984,67.049637 a 44.547726,44.547726 0 1 1 -89.095453,0 44.547726,44.547726 0 1 1 89.095453,0 z"
       sodipodi:ry="44.547726"
       sodipodi:rx="44.547726"
       sodipodi:cy="67.049637"
       sodipodi:cx="126.57211"
       id="path4649"
       style="fill:#cce813;fill-opacity:1;stroke:#ffffff;stroke-width:4;stroke-linecap:square;stroke-linejoin:bevel;stroke-miterlimit:4;stroke-opacity:1;stroke-dasharray:none;stroke-dashoffset:0"
       sodipodi:type="arc" />
    <path
       sodipodi:type="arc"
       style="fill:none;stroke:#ffffff;stroke-width:4;stroke-linecap:square;stroke-linejoin:bevel;stroke-miterlimit:4;stroke-opacity:1;stroke-dasharray:none;stroke-dashoffset:0"
       id="path4651"
       sodipodi:cx="126.57211"
       sodipodi:cy="67.049637"
       sodipodi:rx="44.547726"
       sodipodi:ry="44.547726"
       d="m 171.11984,67.049637 a 44.547726,44.547726 0 1 1 -89.095453,0 44.547726,44.547726 0 1 1 89.095453,0 z"
       transform="translate(-16.109127,168.96046)" />
  </g>
</svg>
